<svg width="12" height="12" viewBox="0 0 12 12" fill="none" xmlns="http://www.w3.org/2000/svg">
<path d="M7.57282 5.12898V6.351M8.79514 5.12898H2.68384M8.18384 2.68434H3.29514V0.851004C3.29514 0.688953 3.35952 0.533539 3.47411 0.418952C3.58869 0.304365 3.74411 0.23999 3.90616 0.23999H7.57282C7.73488 0.23999 7.89029 0.304365 8.00488 0.418952C8.11946 0.533539 8.18384 0.688953 8.18384 0.851004V2.68434Z" stroke="#000550" stroke-width="0.48" stroke-linecap="round" stroke-linejoin="round"/>
<path d="M11.24 10.629V3.29563C11.24 3.13355 11.1756 2.97811 11.061 2.86348C10.9465 2.74884 10.7911 2.6844 10.629 2.68433H0.851004C0.51367 2.68433 0.23999 2.95801 0.23999 3.29563V10.629C0.23999 10.9663 0.51367 11.24 0.851004 11.24H10.629C10.9663 11.24 11.24 10.9663 11.24 10.629Z" stroke="black" stroke-width="0.48" stroke-linecap="round" stroke-linejoin="round"/>
</svg>
