<svg width="11" height="6" viewBox="0 0 11 6" fill="none" xmlns="http://www.w3.org/2000/svg">
<path fill-rule="evenodd" clip-rule="evenodd" d="M0.0434307 5.37378C0.0867867 5.47846 0.160212 5.56792 0.254421 5.63087C0.348629 5.69381 0.459388 5.7274 0.572687 5.72738H9.73731C9.85052 5.72728 9.96117 5.69364 10.0553 5.63069C10.1494 5.56775 10.2227 5.47832 10.266 5.37372C10.3093 5.26912 10.3207 5.15403 10.2986 5.04299C10.2766 4.93194 10.2221 4.82993 10.1421 4.74982L5.55977 0.167514C5.45237 0.0602496 5.30679 0 5.155 0C5.00321 0 4.85763 0.0602496 4.75023 0.167514L0.167917 4.74982C0.0878089 4.82987 0.0332279 4.93187 0.0110706 5.04293C-0.0110867 5.15399 0.000174346 5.26912 0.0434307 5.37378Z" fill="#4C4C4C"/>
</svg>
